<svg width="568" height="24" viewBox="0 0 568 24" fill="none" xmlns="http://www.w3.org/2000/svg">
<path d="M22 13.5C22.8284 13.5 23.5 12.8284 23.5 12C23.5 11.1716 22.8284 10.5 22 10.5L22 13.5ZM0.939341 10.9393C0.353554 11.5251 0.353554 12.4749 0.93934 13.0607L10.4853 22.6066C11.0711 23.1924 12.0208 23.1924 12.6066 22.6066C13.1924 22.0208 13.1924 21.0711 12.6066 20.4853L4.12132 12L12.6066 3.51472C13.1924 2.92893 13.1924 1.97918 12.6066 1.3934C12.0208 0.807611 11.0711 0.807611 10.4853 1.3934L0.939341 10.9393ZM22 10.5L2 10.5L2 13.5L22 13.5L22 10.5Z" fill="white" fill-opacity="0.3"/>
<path d="M218.01 7.05941L225 5L222.96 12.0099L225 19L218.01 16.9604L211 19L213.059 12.0099L211 5L218.01 7.05941Z" fill="#B9FF66"/>
<path d="M251.01 7.05941L258 5L255.96 12.0099L258 19L251.01 16.9604L244 19L246.059 12.0099L244 5L251.01 7.05941Z" fill="white"/>
<path d="M284.01 7.05941L291 5L288.96 12.0099L291 19L284.01 16.9604L277 19L279.059 12.0099L277 5L284.01 7.05941Z" fill="white"/>
<path d="M317.01 7.05941L324 5L321.96 12.0099L324 19L317.01 16.9604L310 19L312.059 12.0099L310 5L317.01 7.05941Z" fill="white"/>
<path d="M350.01 7.05941L357 5L354.96 12.0099L357 19L350.01 16.9604L343 19L345.059 12.0099L343 5L350.01 7.05941Z" fill="white"/>
<path d="M546 10.5C545.172 10.5 544.5 11.1716 544.5 12C544.5 12.8284 545.172 13.5 546 13.5L546 10.5ZM567.061 13.0607C567.646 12.4749 567.646 11.5251 567.061 10.9393L557.515 1.3934C556.929 0.807613 555.979 0.807613 555.393 1.3934C554.808 1.97919 554.808 2.92893 555.393 3.51472L563.879 12L555.393 20.4853C554.808 21.0711 554.808 22.0208 555.393 22.6066C555.979 23.1924 556.929 23.1924 557.515 22.6066L567.061 13.0607ZM546 13.5L566 13.5L566 10.5L546 10.5L546 13.5Z" fill="white"/>
</svg>
